<?xml version="1.0" encoding="iso-8859-1"?>
<!-- Uploaded to: SVG Repo, www.svgrepo.com, Generator: SVG Repo Mixer Tools -->
<svg height="800px" width="800px" version="1.1" id="Layer_1" xmlns="http://www.w3.org/2000/svg" xmlns:xlink="http://www.w3.org/1999/xlink" 
	 viewBox="0 0 512 512" xml:space="preserve">
<path style="fill:#C0FCFF;" d="M402.286,186.514H109.714c-12.118,0-21.943,9.825-21.943,21.943v146.286
	c0,12.118,9.825,21.943,21.943,21.943h292.571c12.118,0,21.943-9.825,21.943-21.943V208.457
	C424.229,196.339,414.404,186.514,402.286,186.514z"/>
<path style="fill:#89D2E8;" d="M402.286,186.514H256v190.171h146.286c12.118,0,21.943-9.825,21.943-21.943V208.457
	C424.229,196.339,414.404,186.514,402.286,186.514z"/>
<path style="fill:#A9A9AE;" d="M256,98.743c-12.118,0-21.943,9.825-21.943,21.943v87.771c0,12.118,9.825,21.943,21.943,21.943
	c12.118,0,21.943-9.825,21.943-21.943v-87.771C277.943,108.567,268.118,98.743,256,98.743z"/>
<path style="fill:#7AC0DE;" d="M490.057,149.943h-87.771c-12.118,0-21.943,9.825-21.943,21.943v219.429
	c0,12.118,9.825,21.943,21.943,21.943h87.771c12.118,0,21.943-9.825,21.943-21.943V171.886
	C512,159.767,502.175,149.943,490.057,149.943z"/>
<path style="fill:#89D2E8;" d="M109.714,149.943H21.943C9.825,149.943,0,159.767,0,171.886v219.429
	c0,12.118,9.825,21.943,21.943,21.943h87.771c12.118,0,21.943-9.825,21.943-21.943V171.886
	C131.657,159.767,121.833,149.943,109.714,149.943z"/>
<path style="fill:#DA3981;" d="M299.886,98.743h-87.771c-12.118,0-21.943,9.825-21.943,21.943s9.825,21.943,21.943,21.943h87.771
	c12.118,0,21.943-9.825,21.943-21.943S312.004,98.743,299.886,98.743z"/>
<path style="fill:#A91E62;" d="M321.829,120.686c0-12.118-9.825-21.943-21.943-21.943H256v43.886h43.886
	C312.004,142.629,321.829,132.804,321.829,120.686z"/>
</svg>